<mxfile host="app.diagrams.net" modified="2020-10-19T02:07:35.825Z" agent="5.0 (Windows NT 6.1; Win64; x64) AppleWebKit/537.36 (KHTML, like Gecko) Chrome/83.0.4103.116 Safari/537.36" etag="9EF_YZ_u4CNc6QffXWlo" version="13.8.0" type="github">
  <diagram id="v87uAr-3PgzYfvqMpKA_" name="Page-1">
    <mxGraphModel dx="1242" dy="672" grid="1" gridSize="10" guides="1" tooltips="1" connect="1" arrows="1" fold="1" page="1" pageScale="1" pageWidth="827" pageHeight="1169" math="0" shadow="0">
      <root>
        <mxCell id="0" />
        <mxCell id="1" parent="0" />
        <mxCell id="WR_h59PlAC_kSV7P3UoJ-6" style="edgeStyle=orthogonalEdgeStyle;rounded=0;orthogonalLoop=1;jettySize=auto;html=1;" edge="1" parent="1" source="WR_h59PlAC_kSV7P3UoJ-1" target="WR_h59PlAC_kSV7P3UoJ-5">
          <mxGeometry relative="1" as="geometry" />
        </mxCell>
        <mxCell id="WR_h59PlAC_kSV7P3UoJ-1" value="移动警务网&lt;br&gt;app" style="rounded=0;whiteSpace=wrap;html=1;fillColor=#d5e8d4;strokeColor=#82b366;" vertex="1" parent="1">
          <mxGeometry x="60" y="70" width="110" height="60" as="geometry" />
        </mxCell>
        <mxCell id="WR_h59PlAC_kSV7P3UoJ-4" value="二类网，&lt;br&gt;三类网边界" style="line;strokeWidth=2;direction=south;html=1;" vertex="1" parent="1">
          <mxGeometry x="450" y="30" width="10" height="550" as="geometry" />
        </mxCell>
        <mxCell id="WR_h59PlAC_kSV7P3UoJ-8" style="edgeStyle=orthogonalEdgeStyle;rounded=0;orthogonalLoop=1;jettySize=auto;html=1;entryX=0;entryY=0.5;entryDx=0;entryDy=0;" edge="1" parent="1" source="WR_h59PlAC_kSV7P3UoJ-5" target="WR_h59PlAC_kSV7P3UoJ-7">
          <mxGeometry relative="1" as="geometry" />
        </mxCell>
        <mxCell id="WR_h59PlAC_kSV7P3UoJ-5" value="诺特总线" style="rounded=0;whiteSpace=wrap;html=1;" vertex="1" parent="1">
          <mxGeometry x="260" y="70" width="120" height="230" as="geometry" />
        </mxCell>
        <mxCell id="WR_h59PlAC_kSV7P3UoJ-10" style="edgeStyle=orthogonalEdgeStyle;rounded=0;orthogonalLoop=1;jettySize=auto;html=1;entryX=0;entryY=0.5;entryDx=0;entryDy=0;" edge="1" parent="1" source="WR_h59PlAC_kSV7P3UoJ-7" target="WR_h59PlAC_kSV7P3UoJ-9">
          <mxGeometry relative="1" as="geometry" />
        </mxCell>
        <mxCell id="WR_h59PlAC_kSV7P3UoJ-7" value="诺特总线" style="rounded=0;whiteSpace=wrap;html=1;" vertex="1" parent="1">
          <mxGeometry x="520" y="70" width="90" height="230" as="geometry" />
        </mxCell>
        <mxCell id="WR_h59PlAC_kSV7P3UoJ-12" style="edgeStyle=orthogonalEdgeStyle;rounded=0;orthogonalLoop=1;jettySize=auto;html=1;" edge="1" parent="1" source="WR_h59PlAC_kSV7P3UoJ-9" target="WR_h59PlAC_kSV7P3UoJ-11">
          <mxGeometry relative="1" as="geometry" />
        </mxCell>
        <mxCell id="WR_h59PlAC_kSV7P3UoJ-9" value="应用后端资源" style="rounded=0;whiteSpace=wrap;html=1;fillColor=#d5e8d4;strokeColor=#82b366;" vertex="1" parent="1">
          <mxGeometry x="690" y="70" width="120" height="230" as="geometry" />
        </mxCell>
        <mxCell id="WR_h59PlAC_kSV7P3UoJ-11" value="蓝信" style="rounded=0;whiteSpace=wrap;html=1;fillColor=#f8cecc;strokeColor=#b85450;" vertex="1" parent="1">
          <mxGeometry x="910" y="70" width="90" height="230" as="geometry" />
        </mxCell>
      </root>
    </mxGraphModel>
  </diagram>
</mxfile>
